<svg width="60" height="60" viewBox="0 0 60 60" fill="none" xmlns="http://www.w3.org/2000/svg">
<g clip-path="url(#clip0_38_158)">
<path fill-rule="evenodd" clip-rule="evenodd" d="M43.125 28.125H23.2763L31.005 20.4C31.7363 19.6688 31.7363 18.4874 31.005 17.7374C30.2719 17.0062 29.085 17.0062 28.3519 17.7374L17.745 28.35C17.2969 28.8 17.1562 29.4188 17.2593 30C17.1562 30.5812 17.2969 31.2 17.745 31.65L28.3519 42.2626C29.085 42.9938 30.2719 42.9938 31.005 42.2626C31.7363 41.5313 31.7363 40.3312 31.005 39.6L23.2763 31.875H43.125C44.16 31.875 45 31.0312 45 30C45 28.9688 44.16 28.125 43.125 28.125ZM30 56.25C15.5025 56.25 3.75 44.4938 3.75 30C3.75 15.5063 15.5025 3.75 30 3.75C44.4975 3.75 56.25 15.5063 56.25 30C56.25 44.4938 44.4975 56.25 30 56.25ZM30 0C13.4325 0 0 13.425 0 30C0 46.575 13.4325 60 30 60C46.5675 60 60 46.575 60 30C60 13.425 46.5675 0 30 0Z" fill="#2C5A87"/>
</g>
<defs>
<clipPath id="clip0_38_158">
<rect width="60" height="60" fill="white"/>
</clipPath>
</defs>
</svg>
