<svg width="65" height="65" viewBox="0 0 65 65" fill="none" xmlns="http://www.w3.org/2000/svg">
<g clip-path="url(#clip0_29_60)">
<path fill-rule="evenodd" clip-rule="evenodd" d="M45.7742 34.2875L34.2855 45.7845C33.4912 46.5766 32.2055 46.5766 31.4133 45.7845C30.6191 44.9923 30.6191 43.6922 31.4133 42.9L39.7841 34.5312H18.2812C17.158 34.5312 16.25 33.6172 16.25 32.5C16.25 31.3828 17.158 30.4688 18.2812 30.4688H39.7841L31.4133 22.1C30.6191 21.3078 30.6191 20.028 31.4133 19.2155C32.2055 18.4234 33.4912 18.4234 34.2855 19.2155L45.7742 30.7125C46.2617 31.2 46.4141 31.8703 46.3024 32.5C46.4141 33.1297 46.2617 33.8 45.7742 34.2875ZM32.5 0C14.5498 0 0 14.5437 0 32.5C0 50.4562 14.5498 65 32.5 65C50.4502 65 65 50.4562 65 32.5C65 14.5437 50.4502 0 32.5 0Z" fill="#2C5A87"/>
</g>
<defs>
<clipPath id="clip0_29_60">
<rect width="65" height="65" fill="white"/>
</clipPath>
</defs>
</svg>
